<?xml version="1.0" encoding="utf-8"?>
<!-- Generator: Adobe Illustrator 28.3.0, SVG Export Plug-In . SVG Version: 6.00 Build 0)  -->
<svg version="1.1" id="Layer_1" xmlns="http://www.w3.org/2000/svg" xmlns:xlink="http://www.w3.org/1999/xlink" x="0px" y="0px"
	 viewBox="0 0 1826 228.9" style="enable-background:new 0 0 1826 228.9;" xml:space="preserve">
<style type="text/css">
	.st0{fill:url(#SVGID_1_);}
	.st1{fill:url(#SVGID_00000010310711977369718680000001386246291274375338_);}
	.st2{fill:url(#SVGID_00000044169565818094478430000015999690399541513856_);}
	.st3{fill:url(#SVGID_00000080164228329279981180000008215612797366464896_);}
	.st4{fill:url(#SVGID_00000019670557278473442460000009395446248308558733_);}
	.st5{fill:url(#SVGID_00000039819983044348447110000015631411981561606567_);}
	.st6{fill:url(#SVGID_00000152265325135573932270000006112896551847640708_);}
	.st7{fill:url(#SVGID_00000118384696501713371030000008464126734815292806_);}
	.st8{fill:url(#SVGID_00000172436395383596312840000017846047424437853608_);}
	.st9{fill:url(#SVGID_00000154399698618109476390000003474890002158881698_);}
	.st10{fill:url(#SVGID_00000108277662821499243290000010188937187107592834_);}
	.st11{fill:url(#SVGID_00000009563618852683903120000014617457566056971670_);}
	.st12{fill:url(#SVGID_00000094587576886530921770000003788563866121789314_);}
	.st13{fill:#FFFE4E;}
	.st14{fill:url(#SVGID_00000013152206538915168840000015586901632974631081_);}
	.st15{fill:url(#SVGID_00000087380938103489813240000001041083786047801485_);}
	.st16{fill:url(#SVGID_00000080208030801342101910000017348577325611081640_);}
	.st17{fill:#267EB7;}
	.st18{fill:#1383B5;}
	.st19{fill:#C7C9CC;}
	.st20{fill:#BABCBF;}
	.st21{fill:#E4E5E7;}
	.st22{fill:#C2C3C7;}
	.st23{fill:#FFFFFF;}
	.st24{fill:#E3E4E8;}
	.st25{fill:#E2E3E5;}
	.st26{fill:#C5C6CA;}
	.st27{fill:#EFEFEF;}
	.st28{fill:#D6D8DC;}
	.st29{fill:#DCDCDE;}
</style>
<linearGradient id="SVGID_1_" gradientUnits="userSpaceOnUse" x1="351.2853" y1="-2.9732" x2="351.2853" y2="175.0268" gradientTransform="matrix(1 0 0 -1 0 202.8936)">
	<stop  offset="0" style="stop-color:#F7FA29"/>
	<stop  offset="0.4698" style="stop-color:#73A098"/>
	<stop  offset="1" style="stop-color:#0848AB"/>
</linearGradient>
<path class="st0" d="M311.3,27.9c25.7,0,52.3,0,78,0c0,11.3,0,22.7,0,34c-10.3,0-20.7,0-31,0c0,10.7,0,23.3,0,35c9.7,0,19.3,0,29,0
	c0,11.7,0,23.3,0,35c-9.7,0-19.5,0-29,0c0,13,0,26,0,39c11,0,22,0,33,0c0,11.9,0,23.1,0,35c-26.7,0-53.3,0-80,0
	C311.3,146.5,311.3,87.2,311.3,27.9L311.3,27.9z"/>
<linearGradient id="SVGID_00000125581139077361637690000006688652411930314112_" gradientUnits="userSpaceOnUse" x1="476.7853" y1="-2.9732" x2="476.7853" y2="175.0268" gradientTransform="matrix(1 0 0 -1 0 202.8936)">
	<stop  offset="0" style="stop-color:#F7FA29"/>
	<stop  offset="0.4698" style="stop-color:#73A098"/>
	<stop  offset="1" style="stop-color:#0848AB"/>
</linearGradient>
<path style="fill:url(#SVGID_00000125581139077361637690000006688652411930314112_);" d="M405.3,27.9c20.2,0,59.6,0,59.6,0
	l12.1,84.9l10.5-84.9h60.8c0,0,0,118.7,0,178c-13.7,0-41,0-41,0l-0.2-120.2l-15.8,120.2h-27.8l-17.2-118v118h-41
	C405.3,205.9,405.3,87.2,405.3,27.9L405.3,27.9z"/>
<linearGradient id="SVGID_00000144307388154700455270000006430805639087924643_" gradientUnits="userSpaceOnUse" x1="619.8762" y1="-6.1933" x2="619.8762" y2="176.0268" gradientTransform="matrix(1 0 0 -1 0 202.8936)">
	<stop  offset="0" style="stop-color:#F7FA29"/>
	<stop  offset="0.4698" style="stop-color:#73A098"/>
	<stop  offset="1" style="stop-color:#0848AB"/>
</linearGradient>
<path style="fill:url(#SVGID_00000144307388154700455270000006430805639087924643_);" d="M566.3,26.9h46l-0.4,126.6
	c0,0,0,16.5,1,20.1c0.5,2.1,1.7,4,3.6,5c0.5,0.3,3.1,0.4,3.4,0.4c2.6-0.5,4.6-2.5,5.3-4.9c0.5-1.6,1-14.1,1-14.1L626,26.9h47.2
	v101.4c0,0,1.4,42.4-3.8,54.4c-5,11.4-15.5,20-27.9,24c-4.3,1.4-17.9,2.5-20.3,2.5c-10.8-0.1-24.2-3.6-29.4-6.2
	c-9.2-4.7-17.1-9.8-21.3-19.3c-4.4-10-4.3-35.4-4.3-53.6C566.3,95.6,566.3,26.9,566.3,26.9z"/>
<linearGradient id="SVGID_00000050656722140776623020000006778074646053181613_" gradientUnits="userSpaceOnUse" x1="728.2853" y1="-2.9732" x2="728.2853" y2="175.0268" gradientTransform="matrix(1 0 0 -1 0 202.8936)">
	<stop  offset="0" style="stop-color:#F7FA29"/>
	<stop  offset="0.4698" style="stop-color:#73A098"/>
	<stop  offset="1" style="stop-color:#0848AB"/>
</linearGradient>
<path style="fill:url(#SVGID_00000050656722140776623020000006778074646053181613_);" d="M690.3,27.9c15.7,0,31.2,0,47,0
	c0,47,0,94,0,141c9.7,0,19.3,0,29,0c0,11.8,0,25.1,0,37c-25.3,0-50.7,0-76,0C690.3,146.5,690.3,87.2,690.3,27.9L690.3,27.9z"/>
<linearGradient id="SVGID_00000024684646374163413850000014336083348236639935_" gradientUnits="userSpaceOnUse" x1="829.3853" y1="-2.9832" x2="829.3853" y2="175.0168" gradientTransform="matrix(1 0 0 -1 0 202.8936)">
	<stop  offset="0" style="stop-color:#F7FA29"/>
	<stop  offset="0.4698" style="stop-color:#73A098"/>
	<stop  offset="1" style="stop-color:#0848AB"/>
</linearGradient>
<path style="fill:url(#SVGID_00000024684646374163413850000014336083348236639935_);" d="M861,27.9h-66.7
	c-0.2,9.5-23.5,178-23.5,178h48.2l2.7-31h16l2.3,31h47.8L861,27.9z M819.8,141.9l10.1-77l7.2,77
	C831.7,141.9,819.8,141.9,819.8,141.9z"/>
<linearGradient id="SVGID_00000117667318287829939260000017461806411013386125_" gradientUnits="userSpaceOnUse" x1="926.7853" y1="-2.9732" x2="926.7853" y2="176.0268" gradientTransform="matrix(1 0 0 -1 0 202.8936)">
	<stop  offset="0" style="stop-color:#F7FA29"/>
	<stop  offset="0.4698" style="stop-color:#73A098"/>
	<stop  offset="1" style="stop-color:#0848AB"/>
</linearGradient>
<path style="fill:url(#SVGID_00000117667318287829939260000017461806411013386125_);" d="M876.3,26.9h101v35h-27v144h-47v-144h-27
	C876.3,61.9,876.3,38.5,876.3,26.9L876.3,26.9z"/>
<linearGradient id="SVGID_00000160148312376470298700000006689103294394966424_" gradientUnits="userSpaceOnUse" x1="1026.2854" y1="-2.9832" x2="1026.2854" y2="175.0168" gradientTransform="matrix(1 0 0 -1 0 202.8936)">
	<stop  offset="0" style="stop-color:#F7FA29"/>
	<stop  offset="0.4698" style="stop-color:#73A098"/>
	<stop  offset="1" style="stop-color:#0848AB"/>
</linearGradient>
<path style="fill:url(#SVGID_00000160148312376470298700000006689103294394966424_);" d="M1066.3,170.9v35h-80c0,0,0-118.7,0-178h78
	v34h-31v35h29v35h-29v39H1066.3z"/>
<linearGradient id="SVGID_00000019664589719979948790000005264239696714827961_" gradientUnits="userSpaceOnUse" x1="1160.6703" y1="21.0368" x2="1160.6703" y2="144.2831" gradientTransform="matrix(1 0 0 -1 0 202.8936)">
	<stop  offset="0" style="stop-color:#F7FA29"/>
	<stop  offset="0.4698" style="stop-color:#73A098"/>
	<stop  offset="1" style="stop-color:#0848AB"/>
</linearGradient>
<path style="fill:url(#SVGID_00000019664589719979948790000005264239696714827961_);" d="M1198,99.3c0,0-1.1-9.5-3.3-12.9
	c-7.5-11.9-24.2-15.5-39.1-9.4c-17.1,7-33.8,26.4-32.5,59.3c0.6,13.7,5.7,23.5,16.9,28.2c20.1,8.5,47.5-6.3,49.9-22.6
	c5.2,0,10.3,0,15.5,0c0.3,0.8-2.3,9.2-4.2,12.2c-5.2,8.3-12.8,15.6-21.2,20.7c-4.5,2.7-16.3,7.1-29.2,7.1c-23,0-36.3-11.8-41.4-29.2
	c-4.9-16.7-0.1-35.7,1.4-40.5c8.1-24.8,20.1-42.8,44.7-50.8c24-7.8,46,1.5,54.5,19.9c2.5,5.3,3.8,17.9,3.7,17.9
	c-0.5,0.1-1.8,0.1-3.5,0.2c-4.2,0.1-10.7,0.2-12.4,0.2L1198,99.3z"/>
<linearGradient id="SVGID_00000123438974233697975390000007920063658228525247_" gradientUnits="userSpaceOnUse" x1="1618.7407" y1="20.9021" x2="1618.7407" y2="145.1463" gradientTransform="matrix(1 0 0 -1 0 202.8936)">
	<stop  offset="0" style="stop-color:#F7FA29"/>
	<stop  offset="0.4698" style="stop-color:#73A098"/>
	<stop  offset="1" style="stop-color:#0848AB"/>
</linearGradient>
<path style="fill:url(#SVGID_00000123438974233697975390000007920063658228525247_);" d="M1571,147.9c5.1,0,11.1,0.1,16.2,0.1
	c0.4,2.6-2.2,11.3,13.8,17.8c15.5,3.4,31.3-2.3,37.1-11c1.8-2.7,4.8-5.1,4.7-11c-0.6-19.8-34.9-12.6-54.1-32.1
	c-3.1-3.1-7.9-11.9-2.4-27.3c4.7-12.9,18.4-21.4,32.9-25.2c19.4-5.1,40.2,3.5,45.4,15.9c1.6,3.8,1.9,16.2,1.9,16.2l-15.8-0.3
	c0,0,0.7-10-6.7-14.2c-17.6-9.9-35.4-1.3-40.8,6.6c-1.8,2.6-4.9,8.1-3.3,13.7c2.6,9.2,13.4,11.2,22.4,14.1c15.8,5.1,41.3,12.2,35,37
	c-0.9,3.4-1.8,7.9-3.7,10.7c-14.8,21.8-34.2,22.8-37.3,22.9C1584.3,182.9,1570.3,171.9,1571,147.9L1571,147.9z"/>
<linearGradient id="SVGID_00000016764047584135735210000006786916472614049679_" gradientUnits="userSpaceOnUse" x1="1298.1603" y1="23.1468" x2="1298.1603" y2="142.8915" gradientTransform="matrix(1 0 0 -1 0 202.8936)">
	<stop  offset="0" style="stop-color:#F7FA29"/>
	<stop  offset="0.4698" style="stop-color:#73A098"/>
	<stop  offset="1" style="stop-color:#0848AB"/>
</linearGradient>
<path style="fill:url(#SVGID_00000016764047584135735210000006786916472614049679_);" d="M1330.2,112.9c3-17.3,5.9-34.7,8.9-52h14.9
	c0.3,0.9,0.4,1.8,0.5,3.3c-7,39.1-19.5,115.6-19.5,115.6l-16.7-0.2v-1l3.5-15.1c0,0,4.1-24.5,6.1-36.7h-60.7l-9.4,52.2l-15.1,0.5
	l-0.8-0.7l-0.2-1.2L1263,60.5c0,0,11.2-0.5,15.1-0.5c0.2,0.2,0.3,0.3,0.4,0.5c0.2,0.3,0.3,0.6,0.3,0.6l-9.1,51.8
	C1269.7,112.9,1310.1,112.9,1330.2,112.9z"/>
<linearGradient id="SVGID_00000005958505212311462470000015328338180321344435_" gradientUnits="userSpaceOnUse" x1="1430.5448" y1="22.2246" x2="1430.5448" y2="143.0168" gradientTransform="matrix(1 0 0 -1 0 202.8936)">
	<stop  offset="0" style="stop-color:#F7FA29"/>
	<stop  offset="0.4698" style="stop-color:#73A098"/>
	<stop  offset="1" style="stop-color:#0848AB"/>
</linearGradient>
<path style="fill:url(#SVGID_00000005958505212311462470000015328338180321344435_);" d="M1477.8,99.4c1.5-6.2,1.5-16.4-0.2-20.9
	c-6.3-16.8-20.5-18.7-43.8-18.7c-10.2,0-30.4,0-30.4,0c-2.8,7.6-20,110.8-20,110.8s-2.5,9.8-0.5,9.9c3.9,0.1,15.3-0.4,15.3-0.4
	l8.1-46.3h27.7c0,0,11.3,31.3,17,46.8c5.5,0,18.1-0.5,18.1-0.5l-18.1-49.3C1451,130.8,1471.6,124.9,1477.8,99.4z M1462.5,99.1
	c-1,3.3-2.3,7.3-4.2,9.9c-2.2,3.1-7.1,6.6-10.8,8c-1.1,0.4-4.2,1.6-10,1.9c-9,0.5-23,0.2-28.8,0.2c2.7-14.8,8.3-45.2,8.3-45.2
	c13.1-0.2,28.9-1.5,38.4,2.7C1462.8,79.8,1466.1,86.7,1462.5,99.1z"/>
<linearGradient id="SVGID_00000103949462458102709650000007100391882441146288_" gradientUnits="userSpaceOnUse" x1="1526.1252" y1="23.9768" x2="1526.1252" y2="143.0268" gradientTransform="matrix(1 0 0 -1 0 202.8936)">
	<stop  offset="0" style="stop-color:#F7FA29"/>
	<stop  offset="0.4698" style="stop-color:#73A098"/>
	<stop  offset="1" style="stop-color:#0848AB"/>
</linearGradient>
<path style="fill:url(#SVGID_00000103949462458102709650000007100391882441146288_);" d="M1543.5,59.9c0.4,0.6,0.9,0.9,0.9,0.9
	l-21.2,118.1l-14.7-0.3l-0.7-1.1l20.6-117.7C1528.4,59.9,1538.4,59.9,1543.5,59.9z"/>
<linearGradient id="SVGID_00000044861827011146066910000001513968278453344670_" gradientUnits="userSpaceOnUse" x1="1753.5653" y1="23.4768" x2="1753.5653" y2="143.0268" gradientTransform="matrix(1 0 0 -1 0 202.8936)">
	<stop  offset="0" style="stop-color:#F7FA29"/>
	<stop  offset="0.4698" style="stop-color:#73A098"/>
	<stop  offset="1" style="stop-color:#0848AB"/>
</linearGradient>
<polygon style="fill:url(#SVGID_00000044861827011146066910000001513968278453344670_);" points="1710,59.9 1799.4,59.9 
	1797.4,74.4 1760.2,74.4 1742,179.1 1725.7,179.4 1744.4,74.6 1708.6,74.6 1707.7,72.8 "/>
<circle class="st13" cx="123.4" cy="118.9" r="94.2"/>
<linearGradient id="SVGID_00000041272980241722119140000014214637126822695318_" gradientUnits="userSpaceOnUse" x1="604.8466" y1="833.2444" x2="490.46" y2="751.0479" gradientTransform="matrix(-0.4787 -0.878 -0.878 0.4787 1080.3302 264.7959)">
	<stop  offset="7.700000e-02" style="stop-color:#FFFFFF"/>
	<stop  offset="1" style="stop-color:#267EB7"/>
</linearGradient>
<path style="fill:url(#SVGID_00000041272980241722119140000014214637126822695318_);" d="M50.5,171.3c0,0-7.2-18.5,9-31.3
	s118,16.5,118,16.5l23.8-5.9c1.7,18.9-72.7,100.2-146,20.4L50.5,171.3z"/>
<linearGradient id="SVGID_00000073697487341020350490000002643687798652132019_" gradientUnits="userSpaceOnUse" x1="1080.2703" y1="168.8887" x2="965.8837" y2="86.6923" gradientTransform="matrix(-0.4256 0.9049 0.9049 0.4256 479.4954 -887.0097)">
	<stop  offset="7.700000e-02" style="stop-color:#FFFFFF"/>
	<stop  offset="1" style="stop-color:#267EB7"/>
</linearGradient>
<path style="fill:url(#SVGID_00000073697487341020350490000002643687798652132019_);" d="M208.9,146.6c0,0-10.7,16.8-30.5,11.2
	S124.3,51.4,124.3,51.4l-21.2-14.3c14.3-12.5,123.8-0.5,102.7,105.7L208.9,146.6z"/>
<linearGradient id="SVGID_00000001634530129712093900000010557517983420578957_" gradientUnits="userSpaceOnUse" x1="138.4258" y1="152.1551" x2="23.2844" y2="69.4163" gradientTransform="matrix(1 0 0 -1 0 202.8936)">
	<stop  offset="7.700000e-02" style="stop-color:#FFFFFF"/>
	<stop  offset="1" style="stop-color:#267EB7"/>
</linearGradient>
<path style="fill:url(#SVGID_00000001634530129712093900000010557517983420578957_);" d="M112.1,29.3c0,0,19.7,2.5,23.2,22.8
	c2.2,13.2-29.4,49.1-51.8,72.6C71.3,137.4,59.4,140,59.4,140c-6.9,5.2-10.1,13.3-10.5,23.4c0,0-2.9-5.6-4.2-8.9
	c-1.2-3.2-2.4-6.8-3.3-10.7c-8.7-34.8-4.3-92,68.5-110.1L112.1,29.3z"/>
<circle class="st17" cx="123.4" cy="118.6" r="67.5"/>
<polygon class="st18" points="123.7,50.1 181.8,83 181.8,152.9 124,185.9 65.8,152.9 65.8,83.8 "/>
<polygon class="st19" points="108,108.7 123.7,82.4 65.8,83.8 "/>
<polygon class="st20" points="139.3,108.7 181.8,83 123.7,82.4 "/>
<polygon class="st21" points="93.9,135.8 108,108.7 65.8,83.8 "/>
<polygon class="st22" points="154.3,135.8 123.7,118 93.9,135.8 123.8,136.6 "/>
<polygon class="st23" points="123.7,82.4 123.7,118 93.9,135.8 108.4,108 "/>
<polygon class="st24" points="154.3,135.8 139.1,108.5 123.7,82.4 123.7,118 "/>
<polygon class="st23" points="139.3,108.7 154.3,135.8 181.8,83 "/>
<polygon class="st23" points="124,185.9 154.3,135.8 123.8,136.6 "/>
<polygon class="st25" points="93.9,135.8 123.8,136.6 124,185.9 "/>
<polygon class="st26" points="154.3,135.8 181.8,152.9 143.9,152.9 "/>
<polygon class="st27" points="163.6,118 181.8,152.9 154.3,135.8 "/>
<polygon class="st28" points="93.9,135.8 65.8,152.9 104.2,152.9 "/>
<polygon class="st23" points="83.8,117.2 65.8,152.9 93.9,135.8 "/>
<polygon class="st23" points="123.7,82.4 103.2,82.9 123.7,50.1 "/>
<polygon class="st29" points="143.2,82.6 123.7,50.1 123.7,82.4 "/>
</svg>
