<svg width="1500" height="1500" viewBox="0 0 1500 1500" fill="none" xmlns="http://www.w3.org/2000/svg">
<path d="M1499.49 732.949C1490.33 326.773 1158.47 0 749.746 0C335.426 0 0 335.935 0 749.746C0 1036.31 160.842 1285.71 397.523 1411.94V1184.42V754.835C397.523 751.781 397.523 749.236 397.523 746.183C397.523 572.616 522.226 428.062 686.631 396.505V521.208C589.413 549.712 518.663 639.803 518.663 746.183C518.663 746.692 518.663 747.71 518.663 748.219V749.236C520.19 877.503 625.042 980.828 753.308 980.828C859.688 980.828 949.27 910.078 978.283 813.37H1102.99C1071.43 977.774 926.875 1101.97 753.308 1101.97C663.217 1101.97 581.269 1068.37 518.663 1013.4V1463.35C591.449 1486.77 669.325 1500 750.255 1500C906.006 1500 1050.56 1452.66 1170.68 1371.23V1500H1500L1499.49 732.949ZM752.8 883.101C676.96 883.101 615.881 822.022 615.881 746.183C615.881 670.343 676.96 609.264 752.8 609.264C828.639 609.264 889.718 670.343 889.718 746.183C889.718 822.022 828.639 883.101 752.8 883.101ZM1109.09 747.201H987.954C987.954 746.692 987.954 746.692 987.954 746.183C987.954 616.39 883.101 511.537 753.308 511.537H752.8V390.397H753.308C949.779 390.397 1109.09 549.712 1109.09 746.183C1109.09 746.692 1109.09 746.692 1109.09 747.201ZM1317.78 747.201H1197.66C1197.66 746.692 1197.66 746.692 1197.66 746.183C1197.66 500.848 998.643 301.832 753.308 301.832H752.8V181.71H753.308C1065.32 181.71 1317.78 434.679 1317.78 746.183C1317.78 746.692 1317.78 746.692 1317.78 747.201Z" fill="#F4842D"/>
</svg>
